<svg width="29" height="18" viewBox="0 0 29 18" fill="none" xmlns="http://www.w3.org/2000/svg">
<g id="delivery-icon">
<path d="M7.85418 14.958H5.43751C5.10401 14.958 4.83334 14.6873 4.83334 14.3538C4.83334 14.0203 5.10401 13.7497 5.43751 13.7497H7.85418C8.18768 13.7497 8.45834 14.0203 8.45834 14.3538C8.45834 14.6873 8.18768 14.958 7.85418 14.958Z" fill="black"/>
<path d="M27.4896 14.958H25.9792C25.6457 14.958 25.375 14.6873 25.375 14.3538C25.375 14.0203 25.6457 13.7497 25.9792 13.7497H26.9881L27.8026 9.40934C27.7917 7.18843 25.8946 5.29134 23.5625 5.29134H19.5956L17.6731 13.7497H21.1459C21.4794 13.7497 21.75 14.0203 21.75 14.3538C21.75 14.6873 21.4794 14.958 21.1459 14.958H16.9167C16.733 14.958 16.559 14.8746 16.4442 14.7308C16.3294 14.5883 16.2859 14.3998 16.327 14.2209L18.5238 4.55426C18.5866 4.27755 18.8307 4.08301 19.1134 4.08301H23.5625C26.5604 4.08301 29 6.52263 29 9.52051L28.0829 14.465C28.0297 14.7514 27.7808 14.958 27.4896 14.958Z" fill="black"/>
<path d="M23.5625 17.3747C21.8974 17.3747 20.5417 16.0201 20.5417 14.3538C20.5417 12.6876 21.8974 11.333 23.5625 11.333C25.2276 11.333 26.5833 12.6876 26.5833 14.3538C26.5833 16.0201 25.2276 17.3747 23.5625 17.3747ZM23.5625 12.5413C22.5632 12.5413 21.75 13.3546 21.75 14.3538C21.75 15.3531 22.5632 16.1663 23.5625 16.1663C24.5618 16.1663 25.375 15.3531 25.375 14.3538C25.375 13.3546 24.5618 12.5413 23.5625 12.5413Z" fill="black"/>
<path d="M10.2708 17.3747C8.60576 17.3747 7.25001 16.0201 7.25001 14.3538C7.25001 12.6876 8.60576 11.333 10.2708 11.333C11.9359 11.333 13.2917 12.6876 13.2917 14.3538C13.2917 16.0201 11.9359 17.3747 10.2708 17.3747ZM10.2708 12.5413C9.27155 12.5413 8.45834 13.3545 8.45834 14.3538C8.45834 15.3531 9.27155 16.1663 10.2708 16.1663C11.2701 16.1663 12.0833 15.3531 12.0833 14.3538C12.0833 13.3546 11.2701 12.5413 10.2708 12.5413Z" fill="black"/>
<path d="M7.85417 4.08301H3.02084C2.68734 4.08301 2.41667 3.81234 2.41667 3.47884C2.41667 3.14534 2.68734 2.87467 3.02084 2.87467H7.85417C8.18767 2.87467 8.45834 3.14534 8.45834 3.47884C8.45834 3.81234 8.18767 4.08301 7.85417 4.08301Z" fill="black"/>
<path d="M7.85418 7.70801H1.81251C1.47901 7.70801 1.20834 7.43734 1.20834 7.10384C1.20834 6.77034 1.47901 6.49967 1.81251 6.49967H7.85418C8.18768 6.49967 8.45834 6.77034 8.45834 7.10384C8.45834 7.43734 8.18768 7.70801 7.85418 7.70801Z" fill="black"/>
<path d="M7.85417 11.333H0.604167C0.270667 11.333 0 11.0623 0 10.7288C0 10.3953 0.270667 10.1247 0.604167 10.1247H7.85417C8.18767 10.1247 8.45833 10.3953 8.45833 10.7288C8.45833 11.0623 8.18767 11.333 7.85417 11.333Z" fill="black"/>
<path d="M16.9167 14.958L12.6875 14.958C12.354 14.958 12.0833 14.6873 12.0833 14.3538C12.0833 14.0203 12.354 13.7497 12.6875 13.7497H16.4346L19.1799 1.66634H5.43751C5.10401 1.66634 4.83334 1.39567 4.83334 1.06217C4.83334 0.728674 5.10401 0.458008 5.43751 0.458008H19.9375C20.1212 0.458008 20.2952 0.541383 20.41 0.685175C20.5248 0.827758 20.5683 1.01626 20.5272 1.19509L17.5063 14.4868C17.4435 14.7635 17.1982 14.958 16.9167 14.958Z" fill="black"/>
</g>
</svg>
